<svg width="261" height="58" viewBox="0 0 261 58" fill="none" xmlns="http://www.w3.org/2000/svg">
<path d="M96.4179 9.94287H85.1374L81.1497 39.8787H89.2142L89.6199 34.4313H92.3411L92.7369 39.8587H100.886L96.4179 9.94287ZM92.3114 28.9688H89.6199L90.7876 16.5919C90.7876 16.5919 92.4153 28.8987 92.3114 28.9688" fill="white"/>
<path d="M180.434 34.3965C180.581 35.4534 180.999 36.4529 181.646 37.2954C182.452 38.3115 183.516 39.0868 184.723 39.5385C186.235 40.1399 187.849 40.4325 189.473 40.3997C190.915 40.4235 192.348 40.1739 193.698 39.6637C194.825 39.2299 195.814 38.4965 196.563 37.5408C197.305 36.5995 197.736 34.8221 197.884 33.9309C198.083 32.5234 198.16 31.1011 198.117 29.6801V9.91309H190.299V32.1685C190.356 33.0855 190.283 34.0061 190.082 34.9022C190.01 35.0897 189.879 35.2478 189.708 35.352C189.538 35.4561 189.339 35.5004 189.142 35.478C188.962 35.4979 188.781 35.4604 188.624 35.3705C188.467 35.2807 188.342 35.1431 188.266 34.9773C188.085 34.1816 188.017 33.364 188.063 32.549V9.9231H180.246V27.447C180.246 30.7265 180.305 33.3801 180.424 34.3865" fill="white"/>
<path d="M258.571 9.9082H250.764V39.8641H258.571V9.9082Z" fill="white"/>
<path d="M235.163 27.0915H237.503V39.8589H245.306V9.91309H237.503V20.5776H235.163V9.91309H227.356V39.8589H235.163V27.0915Z" fill="white"/>
<path d="M207.245 39.2183C209.007 40.072 210.948 40.4792 212.9 40.4049C214.846 40.4674 216.77 39.984 218.461 39.008C219.764 38.2924 220.788 37.1502 221.365 35.7686C221.806 34.5419 222.023 31.5778 222.023 28.6388V27.4672H214.206V31.9734C214.264 32.9727 214.174 33.9751 213.939 34.9474C213.813 35.1416 213.641 35.3011 213.439 35.4114C213.237 35.5217 213.011 35.5795 212.781 35.5795C212.552 35.5795 212.326 35.5217 212.123 35.4114C211.921 35.3011 211.75 35.1416 211.623 34.9474C211.445 34.5319 211.391 33.6306 211.391 32.2488V18.1946C211.391 16.7526 211.445 15.3157 211.623 14.8751C211.802 14.4345 212.168 14.2442 212.806 14.2442C213.444 14.2442 213.795 14.4144 213.949 14.7449C214.102 15.0753 214.206 16.5023 214.206 17.9292V22.881H222.008V20.1923C222.008 17.5337 221.766 15.0903 221.301 13.8386C220.731 12.4631 219.687 11.3439 218.362 10.6893C216.648 9.79405 214.733 9.36447 212.806 9.44264C211.224 9.41087 209.651 9.68445 208.17 10.2487C206.967 10.7087 205.906 11.4847 205.098 12.4968C204.409 13.347 203.955 14.366 203.782 15.4508C203.599 17.1433 203.522 18.8456 203.549 20.5478V28.8291C203.549 31.6179 203.801 34.5619 204.286 35.9538C204.815 37.3937 205.881 38.566 207.255 39.2183" fill="white"/>
<path d="M111.712 39.8439L111.707 20.137L114.473 39.8389H119.183L122.122 20.2121V39.8389H128.989L128.95 9.91309H118.842L116.917 23.8621L114.992 9.91309H104.885L104.889 39.8389L111.712 39.8439Z" fill="white"/>
<path d="M67.0897 39.8693H74.3032V28.9745L80.0128 9.93848H72.8338L70.835 21.6995L68.7669 9.93848H61.6028L67.0897 28.9745V39.8693Z" fill="white"/>
<path d="M141.62 34.4212H144.341L144.732 39.8486H152.88L148.428 9.92773H137.137L133.149 39.8636H141.214L141.62 34.4212ZM142.782 16.5968C142.782 16.5968 144.41 28.9086 144.311 28.9687H141.62L142.782 16.5968Z" fill="white"/>
<path d="M157.898 37.1403C158.521 38.1269 159.385 38.934 160.406 39.4835C161.538 40.0845 162.799 40.3924 164.077 40.3797C165.181 40.3797 166.348 40.2145 167.095 39.6687C167.984 39.1029 168.696 38.294 169.149 37.3356L169.866 39.839H174.813V23.9873H165.784V27.9678H167.169V32.0684C167.228 32.978 167.122 33.8907 166.858 34.762C166.761 34.9862 166.596 35.1733 166.387 35.2966C166.178 35.4198 165.936 35.4728 165.695 35.448C165.478 35.4716 165.259 35.4259 165.07 35.3172C164.88 35.2086 164.728 35.0424 164.636 34.8422C164.424 34.0142 164.339 33.1579 164.384 32.3037V17.6787C164.384 16.2167 164.478 15.2955 164.636 14.95C164.76 14.7686 164.929 14.6238 165.127 14.5306C165.324 14.4373 165.543 14.3989 165.759 14.4193C166.318 14.4193 166.749 14.5344 166.927 14.95C167.09 15.5707 167.172 16.2104 167.169 16.8526C167.169 17.183 167.169 17.6988 167.169 18.1043V20.5126H174.818V19.8617C174.818 17.5185 174.571 15.3556 174.106 14.0988C173.641 12.8421 172.656 11.8007 171.137 10.8895C169.392 9.90079 167.418 9.40129 165.418 9.44248C163.388 9.39181 161.392 9.97766 159.704 11.1198C158.219 12.1512 157.334 13.2927 157.027 14.5294C156.648 16.6246 156.482 18.7537 156.532 20.8831V29.5549C156.5 31.1438 156.576 32.7331 156.76 34.3114C156.916 35.3278 157.299 36.295 157.878 37.1403" fill="white"/>
<g clip-path="url(#clip0_16685_108)">
<ellipse cx="25.1837" cy="25.2138" rx="24.5345" ry="24.8283" fill="white"/>
<path d="M25.1788 -0.0739741C30.1572 -0.074956 35.024 1.40731 39.1638 4.18538C43.3036 6.96344 46.5305 10.9125 48.4363 15.5332C50.3421 20.1538 50.8412 25.2385 49.8706 30.1442C48.9 35.0499 46.5032 39.5562 42.9833 43.0932C39.4634 46.6303 34.9786 49.0392 30.096 50.0154C25.2134 50.9915 20.1523 50.491 15.5528 48.5772C10.9533 46.6634 7.02206 43.4222 4.25614 39.2635C1.49023 35.1048 0.0139161 30.2155 0.013916 25.2138C0.0139159 18.5079 2.66505 12.0766 7.38425 7.33441C12.1034 2.59217 18.5042 -0.0726577 25.1788 -0.0739741V-0.0739741ZM37.6106 17.6781C38.1669 17.1192 38.4794 16.3612 38.4794 15.5708C38.4794 14.7804 38.1669 14.0224 37.6106 13.4635C37.0543 12.9046 36.2998 12.5906 35.5131 12.5906C34.7264 12.5906 33.9719 12.9046 33.4156 13.4635L25.5988 21.3169H24.996L17.1792 13.4635C16.6229 12.9039 15.8682 12.5893 15.081 12.5889C14.2938 12.5884 13.5387 12.9021 12.9818 13.461C12.4248 14.0199 12.1117 14.7782 12.1112 15.569C12.1108 16.3599 12.423 17.1186 12.9793 17.6781L22.2685 27.0009V40.3448C22.2999 41.1209 22.6289 41.8547 23.1865 42.3926C23.7442 42.9305 24.4873 43.2309 25.2604 43.2309C26.0334 43.2309 26.7766 42.9305 27.3342 42.3926C27.8918 41.8547 28.2208 41.1209 28.2522 40.3448V27.0754L37.6106 17.6781Z" fill="#E03638"/>
</g>
<defs>
<clipPath id="clip0_16685_108">
<rect width="50.3273" height="50.5635" fill="white"/>
</clipPath>
</defs>
</svg>
