<svg width="371" height="73" viewBox="0 0 371 73" fill="none" xmlns="http://www.w3.org/2000/svg">
<path fill-rule="evenodd" clip-rule="evenodd" d="M236.39 14.0916C232.624 14.3531 230.012 15.4393 227.691 17.7083C225.066 20.2736 224.833 21.9313 224.932 37.3359C224.997 47.4867 225.046 48.1894 225.824 50.0592C227.105 53.1362 229.786 55.3484 233.237 56.1769C234.443 56.4663 236.928 56.522 238.058 56.2848C239.686 55.9429 241.285 54.9352 242.373 53.5644C242.781 53.0517 242.958 52.9115 243.039 53.039C243.1 53.1348 243.333 53.7599 243.557 54.428L243.964 55.6429H247.499H251.034V44.6758V33.7088H244.467H237.9V36.861V40.0132H239.03H240.159L240.101 43.8549C240.052 47.0903 240.006 47.7952 239.813 48.3208C239.535 49.0755 239.118 49.4287 238.374 49.5402C237.504 49.6708 236.904 49.3578 236.548 48.5877L236.258 47.9594L236.219 35.9416C236.179 24.0341 236.229 22.2471 236.615 21.6287C237.192 20.7054 238.914 20.7964 239.421 21.7769C239.66 22.2381 239.857 25.0435 239.865 28.0939L239.87 29.8998H245.452H251.034V27.7276C251.034 24.1854 250.65 21.6782 249.846 19.9835C248.539 17.226 245.023 14.9425 241.172 14.35C239.847 14.146 237.461 14.0172 236.39 14.0916ZM302.98 14.1469C301.06 14.3145 299.279 14.8107 297.529 15.6663C296.169 16.3315 295.902 16.5237 294.837 17.6031C293.53 18.928 292.938 19.8298 292.473 21.2055C291.871 22.9848 291.816 24.1186 291.816 34.8252C291.816 43.7262 291.841 44.9736 292.049 46.3435C292.789 51.2112 294.062 53.1302 297.699 54.8596C301.209 56.5287 307.167 56.76 310.963 55.3747C312.948 54.6502 314.591 53.5781 315.926 52.1355C317.704 50.2139 318.226 48.1144 318.374 42.2788L318.452 39.2251H312.795H307.139L307.084 43.4609C307.024 47.9502 306.967 48.4071 306.393 48.9459C305.957 49.3561 304.728 49.4683 304.12 49.1536C303.064 48.6078 303.02 47.9708 303.073 34.1531C303.115 23.3008 303.127 22.8456 303.377 22.1507C303.584 21.5758 303.731 21.3814 304.097 21.1987C304.667 20.9134 305.688 20.9017 306.215 21.1743C307.017 21.5889 307.047 21.8082 307.093 27.4372L307.134 32.5267H312.79H318.445L318.375 28.5536C318.299 24.2548 318.133 22.678 317.568 20.8903C316.655 18.0008 314.112 15.8261 310.388 14.7497C308.48 14.1983 305.329 13.9419 302.98 14.1469ZM88.8907 14.303C88.9214 14.3933 89.2198 15.4128 89.554 16.5686C89.888 17.7244 90.7228 20.591 91.4089 22.9387C92.095 25.2865 92.9228 28.1234 93.2481 29.2431C93.5736 30.3628 94.4851 33.4815 95.2735 36.1735L96.7072 41.0681V48.8809V56.6936H101.961H107.215V48.9653V41.237L108.58 36.7177C109.331 34.232 110.253 31.1936 110.628 29.9655C111.003 28.7375 111.507 27.0826 111.748 26.2879C111.989 25.4933 112.67 23.2474 113.262 21.2969C115.178 14.9857 115.358 14.3805 115.358 14.2587C115.358 14.0998 105.153 14.0993 105.055 14.2582C104.973 14.3908 104.165 18.218 103.472 21.7566C102.876 24.7967 102.092 29.4316 102.092 29.9114C102.092 30.1218 102.033 30.2939 101.961 30.2939C101.889 30.2939 101.83 30.0925 101.83 29.8464C101.83 28.7266 100.344 19.68 99.4551 15.3865C99.3802 15.0253 99.2918 14.5969 99.2584 14.4343L99.1978 14.1388H94.0163C89.9291 14.1388 88.8467 14.1735 88.8907 14.303ZM123.454 16.8632C123.253 18.3626 122.918 20.8307 122.709 22.3477C122.501 23.8647 122.089 26.9085 121.793 29.1118C121.115 34.1757 120.669 37.4762 120.347 39.8162C120.208 40.8275 119.854 43.4576 119.559 45.6609C119.265 47.8642 118.853 50.908 118.644 52.425C118.435 53.942 118.224 55.5237 118.175 55.9397L118.085 56.6964L123.913 56.6621L129.74 56.628L130.089 52.8847C130.281 50.8259 130.444 49.1266 130.45 49.1086C130.457 49.0906 131.343 49.0758 132.42 49.0758H134.378L134.453 49.6997C134.495 50.0429 134.621 51.6238 134.734 53.2131C134.847 54.8023 134.967 56.2355 135.002 56.3981L135.064 56.6936H140.792H146.52L146.434 56.0041C146.387 55.6248 146.174 54.162 145.961 52.7534C145.748 51.3447 145.368 48.8328 145.116 47.1713C144.865 45.5099 144.359 42.1705 143.991 39.7505C143.624 37.3305 143.123 34.0207 142.877 32.3953C142.632 30.77 142.189 27.8443 141.893 25.8939C141.597 23.9435 141.204 21.3429 141.018 20.1149C140.833 18.8868 140.552 17.0546 140.395 16.0432L140.108 14.2045L131.964 14.1707L123.82 14.1368L123.454 16.8632ZM151.641 35.1853L151.674 56.2339L156.546 56.2684L161.419 56.3028L161.514 46.0893C161.566 40.472 161.596 34.4703 161.582 32.7523C161.567 31.0344 161.593 29.5912 161.638 29.5454C161.684 29.4995 161.722 29.6309 161.722 29.8372C161.722 30.0435 161.839 30.9547 161.982 31.862C162.126 32.7694 162.449 34.9007 162.701 36.5983C162.952 38.2959 163.369 41.1033 163.627 42.837C163.884 44.5708 164.42 48.1761 164.816 50.8489C165.213 53.5217 165.567 55.8416 165.602 56.0041L165.667 56.2996H169.139H172.611L172.683 55.8728C172.722 55.6379 173.079 53.0817 173.476 50.1922C173.872 47.3027 174.462 43.0176 174.785 40.6699C175.108 38.3222 175.522 35.3079 175.704 33.9715C176.315 29.4822 176.392 28.977 176.478 28.891C176.525 28.8439 176.563 34.9916 176.563 42.5524V56.2996H181.489H186.414V35.2192V14.1388H179.059C175.013 14.1388 171.703 14.1832 171.703 14.2373C171.702 14.3292 171.529 15.6559 170.129 26.2879C169.834 28.5273 169.504 31.0367 169.395 31.8645C169.218 33.2087 169.081 33.8249 169.074 33.3038C169.073 33.2014 168.894 31.9356 168.677 30.4909C168.46 29.0461 167.899 25.2339 167.432 22.0193C166.964 18.8047 166.507 15.7313 166.417 15.1895L166.253 14.2045L158.93 14.1706L151.607 14.1366L151.641 35.1853ZM197.39 14.303C197.364 14.3933 197.22 15.3833 197.071 16.5029C196.8 18.538 196.328 22.0082 195.078 31.1476C194.712 33.8204 194.298 36.8643 194.157 37.9117C194.016 38.9592 193.403 43.4511 192.795 47.8936C192.187 52.3362 191.707 55.9882 191.728 56.0092C191.773 56.0548 203.26 56.046 203.306 56.0004C203.323 55.9831 203.462 54.5805 203.613 52.8835C203.765 51.1866 203.925 49.5159 203.969 49.171L204.048 48.5437L206.034 48.58L208.02 48.6161L208.111 49.7982C208.389 53.4253 208.494 54.7306 208.558 55.3802L208.629 56.1026L214.366 56.0721L220.103 56.0415L220.075 55.7438C220.041 55.3987 218.194 43.2399 217.804 40.8012C217.66 39.8983 217.189 36.8544 216.758 34.0371C216.328 31.2198 215.675 26.9643 215.308 24.5805C214.941 22.1966 214.495 19.2816 214.318 18.1027C214.14 16.9238 213.928 15.5495 213.845 15.049L213.695 14.1388H205.567C199.177 14.1388 197.428 14.1739 197.39 14.303ZM258.821 30.3924C258.861 42.0889 258.921 46.9394 259.035 47.6924C259.823 52.9373 264.886 56.2848 272.049 56.297C274.674 56.3015 276.918 55.8267 279.01 54.8246C280.213 54.2484 280.534 54.019 281.517 53.0318C283.388 51.1544 284.131 49.6192 284.39 47.0977C284.477 46.2526 284.527 39.9743 284.527 29.9516V14.1388H278.882H273.237L273.201 31.1148C273.168 47.0333 273.151 48.1171 272.934 48.5137C272.644 49.044 272.343 49.2071 271.655 49.2071C270.937 49.2071 270.628 49.0235 270.363 48.4414C270.164 48.001 270.141 46.4982 270.108 31.0491L270.072 14.1388H264.419H258.765L258.821 30.3924ZM325.8 35.055L325.834 55.9713L331.449 56.0055L337.063 56.0397V47.2385V38.4371H338.771H340.478V47.2385V56.0397L346.093 56.0055L351.708 55.9713V35.0879V14.2045L346.093 14.1702L340.478 14.136V21.6238V29.1118H338.771H337.063V21.6253V14.1388H331.415H325.767L325.8 35.055ZM359.523 35.2192V56.2996H365.171H370.818V35.2192V14.1388H365.171H359.523V35.2192ZM132.761 27.9377C133.176 32.5661 133.994 40.7643 134.08 41.1624L134.145 41.458H132.238H130.331V41.0727C130.331 39.885 132.259 24.0354 132.388 24.1643C132.409 24.1853 132.577 25.8833 132.761 27.9377ZM206.428 28.4551C206.766 32.3378 207.456 39.2619 207.63 40.5057L207.708 41.0639H205.795C204.223 41.0639 203.882 41.0304 203.882 40.8757C203.882 40.3871 204.588 34.1933 204.999 31.0819C205.251 29.1676 205.559 26.8188 205.683 25.8624C205.807 24.906 205.944 24.1672 205.988 24.2206C206.032 24.2741 206.23 26.1796 206.428 28.4551Z" fill="white"/>
<path fill-rule="evenodd" clip-rule="evenodd" d="M33.6404 0.083436C26.1723 0.712696 19.7182 3.22961 13.7586 7.83683C10.7237 10.1831 7.33877 14.0175 5.26527 17.4584C-1.26913 28.301 -1.75168 41.6798 3.98666 52.8982C9.42527 63.5305 19.7556 70.8025 31.5879 72.3281C36.0294 72.9007 40.9676 72.6131 45.2876 71.5303C58.5738 68.2 69.0005 57.3808 71.8647 43.9529C73.2049 37.6696 72.811 30.7509 70.7702 24.7315C66.6187 12.4862 56.3291 3.3595 43.7388 0.755252C40.7118 0.129012 36.4578 -0.153899 33.6404 0.083436ZM23.4848 18.5599C24.118 18.8371 24.9905 19.6558 30.117 24.7832C35.6448 30.3121 36.0491 30.6873 36.4783 30.6873C36.9074 30.6873 37.3142 30.3104 42.849 24.783C49.5164 18.1247 49.4397 18.1851 51.2384 18.1735C52.0342 18.1683 52.3175 18.2326 53.0562 18.5851C54.7271 19.3825 55.5994 20.8456 55.4948 22.6755C55.3916 24.4838 55.6125 24.2156 47.8687 31.9325L40.8808 38.8962L40.8151 49.0096C40.7498 59.0548 40.7475 59.1271 40.4633 59.7425C40.0346 60.6703 39.1032 61.5912 38.1702 62.0101C35.589 63.1684 32.6793 61.5845 32.158 58.7376C32.0635 58.2226 32.0152 54.6992 32.0152 48.3466V38.7349L25.0835 31.8544C17.5007 24.3276 17.5879 24.4314 17.4677 22.797C17.3348 20.9903 18.2034 19.4425 19.7984 18.6431C21.0576 18.0122 22.1754 17.9869 23.4848 18.5599Z" fill="#E02725"/>
<path fill-rule="evenodd" clip-rule="evenodd" d="M23.4848 18.5599C24.118 18.8372 24.9905 19.6559 30.117 24.7833C35.6448 30.3122 36.0491 30.6874 36.4783 30.6874C36.9074 30.6874 37.3142 30.3105 42.849 24.7831C49.5164 18.1248 49.4397 18.1852 51.2384 18.1735C52.0342 18.1684 52.3176 18.2326 53.0562 18.5852C54.7272 19.3825 55.5994 20.8457 55.4949 22.6756C55.3916 24.4839 55.6125 24.2157 47.8687 31.9326L40.8808 38.8963L40.8151 49.0097C40.7499 59.0548 40.7475 59.1272 40.4633 59.7425C40.0346 60.6703 39.1032 61.5913 38.1702 62.0102C35.589 63.1685 32.6793 61.5846 32.158 58.7376C32.0635 58.2227 32.0152 54.6993 32.0152 48.3466V38.735L25.0835 31.8545C17.5007 24.3277 17.5879 24.4315 17.4677 22.797C17.3348 20.9904 18.2034 19.4426 19.7984 18.6432C21.0576 18.0123 22.1754 17.987 23.4848 18.5599Z" fill="white"/>
</svg>
