<svg width="91" height="91" viewBox="0 0 91 91" fill="none" xmlns="http://www.w3.org/2000/svg">
<rect x="1" y="1" width="89" height="89" rx="44.5" stroke="#E02725" stroke-width="2"/>
<g clip-path="url(#clip0_16685_247)">
<mask id="mask0_16685_247" style="mask-type:luminance" maskUnits="userSpaceOnUse" x="20" y="20" width="51" height="51">
<path d="M69.9999 70V21.0001H21V70H69.9999Z" fill="white" stroke="white" stroke-width="2"/>
</mask>
<g mask="url(#mask0_16685_247)">
<path d="M67.1646 39.6563V50.4288C67.1646 55.8668 66.2428 61.2653 64.4381 66.3951L64.4361 66.4007C63.6241 68.709 61.4435 70.2533 58.9965 70.2529C56.521 70.2525 54.5144 68.2456 54.5144 65.7701V57.5925C54.5144 52.9554 53.1493 48.4209 50.5894 44.5544C48.7317 41.7484 47.741 38.4577 47.741 35.0925V31.1065C47.741 29.1811 49.3018 27.6202 51.2273 27.6202H59.0162C60.3581 27.6202 61.6715 28.0074 62.7988 28.7354L64.8861 30.0833C65.5852 30.5348 66.16 31.1542 66.5581 31.8851C66.9561 32.616 67.1646 33.4349 67.1646 34.2672V36.17" stroke="white" stroke-width="2" stroke-miterlimit="10" stroke-linecap="round" stroke-linejoin="round"/>
<path d="M47.741 31.8536V23.4866C47.741 21.9737 48.9674 20.7473 50.4802 20.7473C51.9931 20.7473 53.2195 21.9737 53.2195 23.4866V27.4708" stroke="white" stroke-width="2" stroke-miterlimit="10" stroke-linecap="round" stroke-linejoin="round"/>
<path d="M53.2195 23.4865C53.2195 22.5237 53.9999 21.7433 54.9626 21.7433C55.9254 21.7433 56.7058 22.5237 56.7058 23.4865V27.2716" stroke="white" stroke-width="2" stroke-miterlimit="10" stroke-linecap="round" stroke-linejoin="round"/>
<path d="M63.6782 28.4669C63.6782 27.5042 64.4587 26.7238 65.4214 26.7238C66.3841 26.7238 67.1645 27.5042 67.1645 28.4669V35.2404" stroke="white" stroke-width="2" stroke-miterlimit="10" stroke-linecap="round" stroke-linejoin="round"/>
<path d="M60.1921 26.3751C60.1921 25.4124 60.9726 24.632 61.9353 24.632C62.898 24.632 63.6785 25.4124 63.6785 26.3751V29.1642" stroke="white" stroke-width="2" stroke-miterlimit="10" stroke-linecap="round" stroke-linejoin="round"/>
<path d="M56.7058 24.9806C56.7058 24.0179 57.4862 23.2374 58.449 23.2374C59.4117 23.2374 60.1921 24.0179 60.1921 24.9806V27.5704" stroke="white" stroke-width="2" stroke-miterlimit="10" stroke-linecap="round" stroke-linejoin="round"/>
<path d="M55.9241 33.3822C55.9241 35.7096 54.0373 37.5963 51.71 37.5963" stroke="white" stroke-width="2" stroke-miterlimit="10" stroke-linecap="round" stroke-linejoin="round"/>
<path d="M36.4852 61.0391V57.5882C36.4852 52.9524 37.8504 48.4192 40.4102 44.5543C42.2679 41.7495 43.2586 38.4598 43.2586 35.0956V31.1065C43.2586 29.181 41.6978 27.6201 39.7723 27.6201H31.9834C30.6415 27.6202 29.328 28.0074 28.2007 28.7354L26.1135 30.0833C25.4144 30.5348 24.8396 31.1542 24.4415 31.8851C24.0435 32.616 23.8349 33.4349 23.835 34.2672V50.4288C23.835 55.869 24.7576 61.2698 26.5637 66.4014C27.376 68.7094 29.5564 70.2533 32.0031 70.2529C34.4786 70.2525 36.4852 68.2456 36.4852 65.7701V64.5254" stroke="white" stroke-width="2" stroke-miterlimit="10" stroke-linecap="round" stroke-linejoin="round"/>
<path d="M43.2585 31.8536V23.4866C43.2585 21.9737 42.0321 20.7473 40.5193 20.7473C39.0064 20.7473 37.78 21.9737 37.78 23.4866V27.4708" stroke="white" stroke-width="2" stroke-miterlimit="10" stroke-linecap="round" stroke-linejoin="round"/>
<path d="M37.78 23.4865C37.78 22.5237 36.9996 21.7433 36.0369 21.7433C35.0741 21.7433 34.2937 22.5237 34.2937 23.4865V27.2716" stroke="white" stroke-width="2" stroke-miterlimit="10" stroke-linecap="round" stroke-linejoin="round"/>
<path d="M27.3213 28.4669C27.3213 27.5042 26.5408 26.7238 25.5781 26.7238C24.6154 26.7238 23.835 27.5042 23.835 28.4669V35.2404" stroke="white" stroke-width="2" stroke-miterlimit="10" stroke-linecap="round" stroke-linejoin="round"/>
<path d="M30.8076 26.3751C30.8076 25.4124 30.0272 24.632 29.0644 24.632C28.1017 24.632 27.3213 25.4124 27.3213 26.3751V29.1642" stroke="white" stroke-width="2" stroke-miterlimit="10" stroke-linecap="round" stroke-linejoin="round"/>
<path d="M34.2939 24.9806C34.2939 24.0179 33.5135 23.2374 32.5508 23.2374C31.5881 23.2374 30.8076 24.0179 30.8076 24.9806V27.5704" stroke="white" stroke-width="2" stroke-miterlimit="10" stroke-linecap="round" stroke-linejoin="round"/>
<path d="M35.0754 33.3822C35.0754 35.7096 36.9622 37.5963 39.2896 37.5963" stroke="white" stroke-width="2" stroke-miterlimit="10" stroke-linecap="round" stroke-linejoin="round"/>
</g>
</g>
<defs>
<clipPath id="clip0_16685_247">
<rect width="51" height="51" fill="white" transform="translate(20 20)"/>
</clipPath>
</defs>
</svg>
