<svg width="91" height="91" viewBox="0 0 91 91" fill="none" xmlns="http://www.w3.org/2000/svg">
<rect x="1" y="1" width="89" height="89" rx="44.5" stroke="#E02725" stroke-width="2"/>
<g clip-path="url(#clip0_16685_270)">
<mask id="mask0_16685_270" style="mask-type:luminance" maskUnits="userSpaceOnUse" x="20" y="20" width="51" height="51">
<path d="M69.9999 70V21.0001H21V70H69.9999Z" fill="white" stroke="white" stroke-width="2"/>
</mask>
<g mask="url(#mask0_16685_270)">
<path d="M67.2989 56.5179C66.6228 54.4177 66.2637 52.2284 66.2333 50.0222L66.1566 44.4578C66.105 40.7175 66.7798 37.0026 68.1435 33.5193C68.6051 32.3404 68.9887 31.1325 69.2918 29.9034" stroke="white" stroke-width="2" stroke-miterlimit="10" stroke-linecap="round" stroke-linejoin="round"/>
<path d="M29.618 62.3509C28.3526 62.5823 27.0688 62.6988 25.7824 62.6987H22.4588C21.5732 62.6987 20.8552 63.4167 20.8552 64.3024V65.4611C20.8552 68.0307 23.0287 70.0647 25.5927 69.8947L27.6926 69.7555C28.8757 69.677 30.064 69.75 31.2285 69.9729C32.0497 70.13 32.8834 70.2127 33.7194 70.2201L37.3954 70.2529C38.2468 70.2529 39.0923 70.1111 39.8971 69.8334C42.0598 69.0872 44.3317 68.7063 46.6195 68.7063H46.6196C50.2907 68.7063 53.9537 69.054 57.5594 69.7448L59.6371 70.1429C60.0192 70.2161 60.4074 70.2529 60.7965 70.2529H63.9833C67.3859 70.2529 70.1444 67.4945 70.1444 64.0918C70.1444 62.9936 69.8509 61.9154 69.2943 60.9687C69.058 60.5667 68.8342 60.1573 68.6235 59.7412" stroke="white" stroke-width="2" stroke-miterlimit="10" stroke-linecap="round" stroke-linejoin="round"/>
<path d="M69.9219 26.4684C70.0626 25.3108 70.1331 24.1457 70.1331 22.9795V21.7432C70.1331 21.1931 69.6873 20.7471 69.137 20.7471H51.2932C50.7422 20.7471 50.296 21.1944 50.2971 21.7454L50.3459 44.2565C50.3459 46.502 49.7827 48.7117 48.7079 50.6833C47.6332 52.6548 46.0811 54.3254 44.1937 55.542L39.7263 58.4219C38.4017 59.2758 36.9865 59.9802 35.5067 60.5222L33.1139 61.3984C33.0759 61.4125 33.0378 61.4261 32.9998 61.4399" stroke="white" stroke-width="2" stroke-miterlimit="10" stroke-linecap="round" stroke-linejoin="round"/>
<path d="M58.2516 59.0204C58.4091 58.2102 57.8801 57.426 57.0701 57.2685C56.26 57.1111 55.4757 57.6402 55.3182 58.4501C55.1609 59.2601 55.6898 60.0445 56.4998 60.2019C57.3099 60.3593 58.0941 59.8304 58.2516 59.0204Z" stroke="white" stroke-width="2" stroke-miterlimit="10" stroke-linecap="round" stroke-linejoin="round"/>
<path d="M58.5422 62.8284C59.8663 62.2652 60.8962 61.0757 61.1914 59.557C61.4784 58.0804 61.0052 56.6323 60.0443 55.6173" stroke="white" stroke-width="2" stroke-miterlimit="10" stroke-linecap="round" stroke-linejoin="round"/>
<path d="M54.8577 54.6575C53.6223 55.2494 52.6728 56.3983 52.3913 57.8464C52.1006 59.342 52.5899 60.8084 53.5759 61.8252" stroke="white" stroke-width="2" stroke-miterlimit="10" stroke-linecap="round" stroke-linejoin="round"/>
<path d="M59.7139 65.5573C61.9207 64.6186 63.6372 62.6361 64.1291 60.1048C64.6076 57.6439 63.8187 55.2304 62.2174 53.5388" stroke="white" stroke-width="2" stroke-miterlimit="10" stroke-linecap="round" stroke-linejoin="round"/>
<path d="M53.5731 51.9388C51.5139 52.9254 49.9316 54.84 49.4624 57.2536C48.9779 59.7464 49.7936 62.1903 51.4367 63.8849" stroke="white" stroke-width="2" stroke-miterlimit="10" stroke-linecap="round" stroke-linejoin="round"/>
<path d="M54.4443 42.0137L53.8791 43.87C53.7139 44.4574 54.08 45.0412 54.7316 45.0525L58.3379 45.1155C58.3602 45.1158 58.3821 45.121 58.4022 45.1306C58.4223 45.1402 58.4401 45.1541 58.4544 45.1712C58.4687 45.1883 58.4791 45.2083 58.4849 45.2298C58.4908 45.2513 58.4919 45.2739 58.4883 45.2959L57.6341 50.4736C57.6082 50.6303 57.6388 50.7911 57.7205 50.9273C57.8022 51.0634 57.9297 51.1661 58.0801 51.2169C58.2306 51.2677 58.3942 51.2634 58.5417 51.2046C58.6893 51.1459 58.8111 51.0366 58.8854 50.8963L62.6208 43.8605C62.8956 43.2704 62.4363 42.6002 61.7885 42.5791L59.1297 42.4795C59.105 42.4786 59.0808 42.4718 59.0593 42.4596C59.0378 42.4475 59.0194 42.4303 59.0059 42.4097C58.9923 42.389 58.9838 42.3654 58.9812 42.3408C58.9786 42.3162 58.9819 42.2914 58.9908 42.2683L60.9762 37.1494C61.0819 36.7592 60.7923 36.3737 60.3879 36.3666L56.6459 36.3012C56.3317 36.2958 56.0909 36.5399 56.0201 36.8371L55.4524 38.7018" stroke="white" stroke-width="2" stroke-miterlimit="10" stroke-linecap="round" stroke-linejoin="round"/>
</g>
</g>
<defs>
<clipPath id="clip0_16685_270">
<rect width="51" height="51" fill="white" transform="translate(20 20)"/>
</clipPath>
</defs>
</svg>
