<svg width="91" height="91" viewBox="0 0 91 91" fill="none" xmlns="http://www.w3.org/2000/svg">
<rect x="1" y="1" width="89" height="89" rx="44.5" stroke="#E02725" stroke-width="2"/>
<g clip-path="url(#clip0_16685_288)">
<mask id="mask0_16685_288" style="mask-type:luminance" maskUnits="userSpaceOnUse" x="20" y="20" width="51" height="51">
<path d="M69.9999 70V21.0001H21V70H69.9999Z" fill="white" stroke="white" stroke-width="2"/>
</mask>
<g mask="url(#mask0_16685_288)">
<path d="M36.8635 63.6973C36.4384 61.4024 35.3426 59.2075 33.5674 57.4325C31.7924 55.6574 29.5975 54.5615 27.3027 54.1365" stroke="white" stroke-width="2" stroke-miterlimit="10" stroke-linecap="round" stroke-linejoin="round"/>
<path d="M63.697 36.8636C61.4021 36.4386 59.2072 35.3427 57.4322 33.5676C55.6572 31.7925 54.5613 29.5977 54.1362 27.3029" stroke="white" stroke-width="2" stroke-miterlimit="10" stroke-linecap="round" stroke-linejoin="round"/>
<path d="M62.2213 42.6894C62.7688 37.6972 65.0025 33.0409 68.5538 29.4897L69.5058 28.5376L62.4624 21.4942L61.5103 22.4463C57.9591 25.9975 53.3028 28.2313 48.3106 28.7787C43.1687 29.3426 38.5675 31.6546 35.1111 35.1111C31.6546 38.5677 29.3425 43.1687 28.7787 48.3106C28.2312 53.3028 25.9975 57.9591 22.4463 61.5103L21.4941 62.4624L28.5376 69.5059L29.4897 68.5538C33.0409 65.0026 37.6971 62.7688 42.6894 62.2213C47.8314 61.6575 52.4324 59.3455 55.889 55.889C59.3454 52.4325 61.6574 47.8314 62.2213 42.6894Z" stroke="white" stroke-width="2" stroke-miterlimit="10" stroke-linecap="round" stroke-linejoin="round"/>
<path d="M60.4432 35.7567C59.7691 36.893 59.1719 38.0303 58.6845 39.1528V39.1529C56.9566 43.1309 54.0627 47.15 50.6062 50.6065C47.1496 54.0631 43.1306 56.957 39.1525 58.6847C38.0299 59.1723 36.8926 59.7695 35.7563 60.4435" stroke="white" stroke-width="2" stroke-miterlimit="10" stroke-linecap="round" stroke-linejoin="round"/>
<path d="M55.2432 30.5567C54.107 31.2308 52.9696 31.8279 51.8471 32.3154H51.847C47.869 34.0432 43.8499 36.9372 40.3934 40.3937C36.9369 43.8501 34.0429 47.8693 32.3152 51.8474C31.8276 52.97 31.2305 54.1073 30.5564 55.2435" stroke="white" stroke-width="2" stroke-miterlimit="10" stroke-linecap="round" stroke-linejoin="round"/>
<path d="M57.4324 33.5677L33.5676 57.4324" stroke="white" stroke-width="2" stroke-miterlimit="10" stroke-linecap="round" stroke-linejoin="round"/>
<path d="M27.4707 21.4943L32.4512 26.4747L27.4707 28.4669L29.4629 32.4513" stroke="white" stroke-width="2" stroke-miterlimit="10" stroke-linecap="round" stroke-linejoin="round"/>
<path d="M21.4941 38.4278L23.4863 35.4396L27.4707 37.4317" stroke="white" stroke-width="2" stroke-miterlimit="10" stroke-linecap="round" stroke-linejoin="round"/>
<path d="M69.5058 63.5293L64.5254 58.5489L62.5332 63.5293L58.5488 61.5371" stroke="white" stroke-width="2" stroke-miterlimit="10" stroke-linecap="round" stroke-linejoin="round"/>
<path d="M52.5723 69.5059L55.5605 67.5137L53.5684 63.5293" stroke="white" stroke-width="2" stroke-miterlimit="10" stroke-linecap="round" stroke-linejoin="round"/>
<path d="M27.4707 21.4943L32.4512 26.4747L27.4707 28.4669L29.4629 32.4513" stroke="white" stroke-width="2" stroke-miterlimit="10" stroke-linecap="round" stroke-linejoin="round"/>
<path d="M21.4941 38.4278L23.4863 35.4396L27.4707 37.4317" stroke="white" stroke-width="2" stroke-miterlimit="10" stroke-linecap="round" stroke-linejoin="round"/>
<path d="M69.5058 63.5293L64.5254 58.5489L62.5332 63.5293L58.5488 61.5371" stroke="white" stroke-width="2" stroke-miterlimit="10" stroke-linecap="round" stroke-linejoin="round"/>
</g>
</g>
<defs>
<clipPath id="clip0_16685_288">
<rect width="51" height="51" fill="white" transform="translate(20 20)"/>
</clipPath>
</defs>
</svg>
