<svg width="157" height="32" viewBox="0 0 157 32" fill="none" xmlns="http://www.w3.org/2000/svg">
<path d="M13.455 7.9V24H10.81V10.43H4.255V24H1.61V7.9H13.455ZM18.7053 19.308C18.8893 20.182 19.311 20.8567 19.9703 21.332C20.6296 21.792 21.4346 22.022 22.3853 22.022C23.704 22.022 24.693 21.5467 25.3523 20.596L27.3993 21.792C26.2646 23.4633 24.5856 24.299 22.3623 24.299C20.4916 24.299 18.9813 23.7317 17.8313 22.597C16.6813 21.447 16.1063 19.998 16.1063 18.25C16.1063 16.5327 16.6736 15.099 17.8083 13.949C18.943 12.7837 20.3996 12.201 22.1783 12.201C23.865 12.201 25.245 12.7913 26.3183 13.972C27.407 15.1527 27.9513 16.5863 27.9513 18.273C27.9513 18.5337 27.9206 18.8787 27.8593 19.308H18.7053ZM18.6823 17.284H25.4443C25.2756 16.3487 24.8846 15.6433 24.2713 15.168C23.6733 14.6927 22.968 14.455 22.1553 14.455C21.2353 14.455 20.4686 14.708 19.8553 15.214C19.242 15.72 18.851 16.41 18.6823 17.284ZM36.876 12.201C38.4553 12.201 39.8047 12.7913 40.924 13.972C42.0433 15.1373 42.603 16.5633 42.603 18.25C42.603 19.952 42.0433 21.3857 40.924 22.551C39.8047 23.7163 38.4553 24.299 36.876 24.299C35.128 24.299 33.7863 23.655 32.851 22.367V28.6H30.367V12.5H32.851V14.156C33.7863 12.8527 35.128 12.201 36.876 12.201ZM33.886 20.895C34.576 21.585 35.4423 21.93 36.485 21.93C37.5277 21.93 38.394 21.585 39.084 20.895C39.774 20.1897 40.119 19.308 40.119 18.25C40.119 17.192 39.774 16.318 39.084 15.628C38.394 14.9227 37.5277 14.57 36.485 14.57C35.4423 14.57 34.576 14.9227 33.886 15.628C33.196 16.318 32.851 17.192 32.851 18.25C32.851 19.308 33.196 20.1897 33.886 20.895ZM47.0393 19.308C47.2233 20.182 47.645 20.8567 48.3043 21.332C48.9636 21.792 49.7686 22.022 50.7193 22.022C52.038 22.022 53.027 21.5467 53.6863 20.596L55.7333 21.792C54.5986 23.4633 52.9196 24.299 50.6963 24.299C48.8256 24.299 47.3153 23.7317 46.1653 22.597C45.0153 21.447 44.4403 19.998 44.4403 18.25C44.4403 16.5327 45.0076 15.099 46.1423 13.949C47.277 12.7837 48.7336 12.201 50.5123 12.201C52.199 12.201 53.579 12.7913 54.6523 13.972C55.741 15.1527 56.2853 16.5863 56.2853 18.273C56.2853 18.5337 56.2546 18.8787 56.1933 19.308H47.0393ZM47.0163 17.284H53.7783C53.6096 16.3487 53.2186 15.6433 52.6053 15.168C52.0073 14.6927 51.302 14.455 50.4893 14.455C49.5693 14.455 48.8026 14.708 48.1893 15.214C47.576 15.72 47.185 16.41 47.0163 17.284ZM60.587 10.89V8.728H67.027V10.89H60.587ZM67.027 12.5H68.936V24H66.498V16.686L60.61 24H58.701V12.5H61.139V19.791L67.027 12.5ZM80.8342 12.5V14.892H77.0852V24H74.6012V14.892H70.8292V12.5H80.8342ZM91.071 12.5H92.98V24H90.542V16.686L84.654 24H82.745V12.5H85.183V19.791L91.071 12.5Z" fill="white"/>
<path d="M156.707 16.7071C157.098 16.3166 157.098 15.6834 156.707 15.2929L150.343 8.92893C149.953 8.53841 149.319 8.53841 148.929 8.92893C148.538 9.31946 148.538 9.95262 148.929 10.3431L154.586 16L148.929 21.6569C148.538 22.0474 148.538 22.6805 148.929 23.0711C149.319 23.4616 149.953 23.4616 150.343 23.0711L156.707 16.7071ZM106 17H156V15H106V17Z" fill="white"/>
</svg>
